<svg xmlns="http://www.w3.org/2000/svg" width="1024" height="1024" viewBox="0 0 1024 1024">
<g>
<path d="M 603.00 571.02 C602.17,571.54 596.76,571.98 590.97,571.98 C583.04,572.00 579.90,571.62 578.22,570.44 L 576.00 568.89 L 576.00 512.00 C576.00,480.72 576.37,454.89 576.82,454.61 C577.27,454.33 590.43,454.01 606.07,453.89 C633.53,453.67 634.70,453.74 640.34,455.94 C648.97,459.30 655.87,465.37 659.79,473.05 C666.21,485.66 666.31,499.50 660.06,511.89 C657.32,517.31 649.76,525.45 645.19,527.90 C643.98,528.54 643.00,529.53 643.00,530.09 C643.00,530.66 645.62,534.58 648.83,538.81 C658.64,551.77 668.00,566.03 668.00,568.03 C668.00,571.19 664.70,572.00 651.74,572.00 C640.15,572.00 639.22,571.85 637.34,569.75 C636.24,568.51 629.97,559.73 623.42,550.23 C612.13,533.87 611.34,532.97 608.50,533.23 L 605.50 533.50 L 605.00 551.79 C604.60,566.57 604.21,570.26 603.00,571.02 ZM 486.83 570.71 C486.06,571.63 482.58,571.98 474.63,571.93 C463.01,571.86 459.00,570.85 459.00,568.00 C459.00,567.06 465.79,546.32 474.09,521.90 C482.39,497.48 490.78,472.77 492.73,467.00 C494.68,461.23 496.72,455.94 497.26,455.25 C497.97,454.35 502.50,454.00 513.58,454.00 L 528.91 454.00 L 534.84 472.25 C538.10,482.29 546.66,507.81 553.86,528.97 C565.48,563.13 566.79,567.68 565.60,569.47 C564.41,571.28 563.03,571.53 552.86,571.78 C544.23,571.99 540.99,571.71 539.52,570.64 C538.45,569.86 536.39,565.68 534.95,561.36 L 532.33 553.50 L 512.72 553.23 L 493.10 552.96 L 490.50 561.19 C489.07,565.71 487.42,570.00 486.83,570.71 ZM 447.78 570.44 C445.87,571.78 440.80,572.00 412.47,572.00 C387.57,572.00 378.96,571.69 377.68,570.75 C376.11,569.59 376.00,565.17 376.24,512.00 L 376.50 454.50 L 411.50 454.00 C430.75,453.73 447.29,453.85 448.25,454.29 C449.77,454.97 450.00,456.58 450.00,466.48 C450.00,467.26 450.00,467.99 450.01,468.69 C450.03,473.78 450.05,476.77 448.58,478.53 C446.49,481.03 441.39,481.02 429.00,481.00 C427.82,481.00 426.56,481.00 425.24,481.00 L 404.92 481.00 L 405.50 498.50 L 447.50 499.50 L 447.78 510.88 C447.81,511.76 447.83,512.59 447.85,513.36 C448.02,518.80 448.11,521.91 446.62,523.68 C444.63,526.04 439.83,526.03 428.64,526.01 C427.44,526.00 426.16,526.00 424.81,526.00 L 404.92 526.00 L 405.21 535.25 L 405.50 544.50 L 426.95 544.77 C442.59,544.97 448.62,545.37 449.19,546.27 C449.62,546.95 449.98,552.31 449.98,558.19 C450.00,568.12 449.84,569.00 447.78,570.44 ZM 260.30 569.68 C251.79,572.77 237.30,573.62 228.28,571.56 C219.39,569.53 210.45,565.25 203.59,559.75 C189.29,548.27 181.66,532.04 181.61,513.00 C181.57,494.99 186.78,482.01 198.90,469.90 C211.17,457.63 223.98,452.57 242.50,452.70 C255.04,452.78 264.79,455.71 274.91,462.44 C282.20,467.29 285.00,470.24 285.00,473.08 C285.00,475.33 269.22,492.00 267.09,492.00 C266.14,492.00 263.51,490.42 261.25,488.48 C254.92,483.06 249.58,481.05 241.50,481.03 C229.51,481.01 219.62,487.12 214.42,497.75 C211.98,502.74 211.60,504.69 211.58,512.50 C211.56,519.56 212.01,522.50 213.67,526.12 C216.84,533.08 222.16,538.35 229.24,541.54 C240.46,546.59 251.32,544.89 261.59,536.48 C263.93,534.57 266.47,533.00 267.24,533.00 C268.95,533.00 286.00,550.25 286.00,551.99 C286.00,555.54 271.21,565.72 260.30,569.68 ZM 793.17 570.35 C791.72,571.66 789.21,572.00 780.89,572.00 C780.00,572.00 779.16,572.01 778.37,572.01 C773.23,572.04 770.21,572.06 768.45,570.58 C765.96,568.49 765.97,563.41 765.99,551.14 C766.00,549.80 766.00,548.39 766.00,546.88 L 766.00 524.87 L 758.90 512.69 C754.99,505.98 749.64,496.90 747.01,492.50 C738.76,478.68 728.41,460.57 727.72,458.75 C726.08,454.38 727.35,454.00 743.52,454.00 L 758.82 454.00 L 769.16 473.70 C774.85,484.53 780.00,493.55 780.62,493.74 C781.23,493.92 786.33,485.06 791.96,474.04 L 802.18 454.00 L 817.48 454.00 C830.63,454.00 832.87,454.23 833.40,455.61 C833.79,456.62 830.87,462.73 825.66,471.86 C821.05,479.91 812.27,495.31 806.14,506.08 L 795.00 525.66 L 795.00 547.18 C795.00,566.75 794.83,568.84 793.17,570.35 ZM 364.02 569.98 C362.08,571.92 360.75,572.00 331.19,572.00 C308.08,572.00 299.97,571.69 298.75,570.75 C297.28,569.63 297.07,563.78 296.69,512.76 C296.38,471.68 296.57,455.78 297.38,455.14 C299.07,453.79 323.70,453.10 324.96,454.36 C325.65,455.05 326.00,470.23 326.00,499.68 L 326.00 543.96 L 328.32 544.54 C329.59,544.86 337.87,544.93 346.71,544.69 C355.55,544.44 363.21,544.53 363.74,544.87 C364.27,545.22 365.00,550.55 365.37,556.73 C365.99,567.16 365.89,568.11 364.02,569.98 ZM 745.78 570.44 C743.88,571.77 739.03,572.00 712.93,572.00 C684.48,572.00 682.19,571.87 680.65,570.16 C679.13,568.49 679.01,563.30 679.24,511.41 L 679.50 454.50 L 692.50 453.86 C700.78,453.45 705.95,453.58 706.75,454.23 C707.72,455.01 708.00,465.22 708.00,499.09 C708.00,542.34 708.03,542.94 710.06,544.03 C711.38,544.74 718.14,545.05 728.89,544.90 C738.11,544.78 746.19,545.00 746.83,545.40 C747.61,545.88 748.00,549.89 748.00,557.50 C748.00,568.13 747.85,568.99 745.78,570.44 ZM 835.68 570.47 C828.57,575.12 816.52,571.57 812.99,563.78 C810.55,558.41 810.54,555.60 812.96,550.27 C818.00,539.17 834.61,538.20 841.09,548.62 C845.64,555.94 843.27,565.50 835.68,570.47 ZM 605.67 506.33 C606.79,507.46 624.99,507.07 627.32,505.88 C640.00,499.34 637.53,482.42 623.64,480.63 C620.96,480.29 615.67,480.30 611.89,480.65 L 605.00 481.29 L 605.00 493.48 C605.00,500.18 605.30,505.97 605.67,506.33 ZM 503.00 524.46 C503.00,525.74 504.66,526.00 513.00,526.00 C518.50,526.00 523.00,525.66 523.00,525.25 C523.00,524.25 513.84,496.63 513.31,496.03 C513.08,495.77 512.47,496.22 511.95,497.03 C510.67,499.02 503.00,522.52 503.00,524.46 Z" fill="rgb(2,2,2)"/>
<path d="M 0.00 512.00 L 0.00 0.00 L 512.00 0.00 L 1024.00 0.00 L 1024.00 512.00 L 1024.00 1024.00 L 512.00 1024.00 L 0.00 1024.00 L 0.00 512.00 ZM 260.30 569.68 C271.21,565.72 286.00,555.54 286.00,551.99 C286.00,550.25 268.95,533.00 267.24,533.00 C266.47,533.00 263.93,534.57 261.59,536.48 C251.32,544.89 240.46,546.59 229.24,541.54 C222.16,538.35 216.84,533.08 213.67,526.12 C212.01,522.50 211.56,519.56 211.58,512.50 C211.60,504.69 211.98,502.74 214.42,497.75 C219.62,487.12 229.51,481.01 241.50,481.03 C249.58,481.05 254.92,483.06 261.25,488.48 C263.51,490.42 266.14,492.00 267.09,492.00 C269.22,492.00 285.00,475.33 285.00,473.08 C285.00,470.24 282.20,467.29 274.91,462.44 C264.79,455.71 255.04,452.78 242.50,452.70 C223.98,452.57 211.17,457.63 198.90,469.90 C186.78,482.01 181.57,494.99 181.61,513.00 C181.66,532.04 189.29,548.27 203.59,559.75 C210.45,565.25 219.39,569.53 228.28,571.56 C237.30,573.62 251.79,572.77 260.30,569.68 ZM 835.68 570.47 C843.27,565.50 845.64,555.94 841.09,548.62 C834.61,538.20 818.00,539.17 812.96,550.27 C810.54,555.60 810.55,558.41 812.99,563.78 C816.52,571.57 828.57,575.12 835.68,570.47 ZM 364.02 569.98 C365.89,568.11 365.99,567.16 365.37,556.73 C365.00,550.55 364.27,545.22 363.74,544.87 C363.21,544.53 355.55,544.44 346.71,544.69 C337.87,544.93 329.59,544.86 328.32,544.54 L 326.00 543.96 L 326.00 499.68 C326.00,470.23 325.65,455.05 324.96,454.36 C323.70,453.10 299.07,453.79 297.38,455.14 C296.57,455.78 296.38,471.68 296.69,512.76 C297.07,563.78 297.28,569.63 298.75,570.75 C299.97,571.69 308.08,572.00 331.19,572.00 C360.75,572.00 362.08,571.92 364.02,569.98 ZM 447.78 570.44 C449.84,569.00 450.00,568.12 449.98,558.19 C449.98,552.31 449.62,546.95 449.19,546.27 C448.62,545.37 442.59,544.97 426.95,544.77 L 405.50 544.50 L 405.21 535.25 L 404.92 526.00 L 424.81 526.00 C449.59,526.00 448.18,526.92 447.78,510.88 L 447.50 499.50 L 426.50 499.00 L 405.50 498.50 L 405.21 489.75 L 404.92 481.00 L 425.24 481.00 C451.39,481.00 450.00,481.82 450.00,466.48 C450.00,456.58 449.77,454.97 448.25,454.29 C447.29,453.85 430.75,453.73 411.50,454.00 L 376.50 454.50 L 376.24 512.00 C376.00,565.17 376.11,569.59 377.68,570.75 C378.96,571.69 387.57,572.00 412.47,572.00 C440.80,572.00 445.87,571.78 447.78,570.44 ZM 486.83 570.71 C487.42,570.00 489.07,565.71 490.50,561.19 L 493.10 552.96 L 512.72 553.23 L 532.33 553.50 L 534.95 561.36 C536.39,565.68 538.45,569.86 539.52,570.64 C540.99,571.71 544.23,571.99 552.86,571.78 C563.03,571.53 564.41,571.28 565.60,569.47 C566.79,567.68 565.48,563.13 553.86,528.97 C546.66,507.81 538.10,482.29 534.84,472.25 L 528.91 454.00 L 513.58 454.00 C502.50,454.00 497.97,454.35 497.26,455.25 C496.72,455.94 494.68,461.23 492.73,467.00 C490.78,472.77 482.39,497.48 474.09,521.90 C465.79,546.32 459.00,567.06 459.00,568.00 C459.00,570.85 463.01,571.86 474.63,571.93 C482.58,571.98 486.06,571.63 486.83,570.71 ZM 603.00 571.02 C604.21,570.26 604.60,566.57 605.00,551.79 L 605.50 533.50 L 608.50 533.23 C611.34,532.97 612.13,533.87 623.42,550.23 C629.97,559.73 636.24,568.51 637.34,569.75 C639.22,571.85 640.15,572.00 651.74,572.00 C664.70,572.00 668.00,571.19 668.00,568.03 C668.00,566.03 658.64,551.77 648.83,538.81 C645.62,534.58 643.00,530.66 643.00,530.09 C643.00,529.53 643.98,528.54 645.19,527.90 C649.76,525.45 657.32,517.31 660.06,511.89 C666.31,499.50 666.21,485.66 659.79,473.05 C655.87,465.37 648.97,459.30 640.34,455.94 C634.70,453.74 633.53,453.67 606.07,453.89 C590.43,454.01 577.27,454.33 576.82,454.61 C576.37,454.89 576.00,480.72 576.00,512.00 L 576.00 568.89 L 578.22 570.44 C579.90,571.62 583.04,572.00 590.97,571.98 C596.76,571.98 602.17,571.54 603.00,571.02 ZM 745.78 570.44 C747.85,568.99 748.00,568.13 748.00,557.50 C748.00,549.89 747.61,545.88 746.83,545.40 C746.19,545.00 738.11,544.78 728.89,544.90 C718.14,545.05 711.38,544.74 710.06,544.03 C708.03,542.94 708.00,542.34 708.00,499.09 C708.00,465.22 707.72,455.01 706.75,454.23 C705.95,453.58 700.78,453.45 692.50,453.86 L 679.50 454.50 L 679.24 511.41 C679.01,563.30 679.13,568.49 680.65,570.16 C682.19,571.87 684.48,572.00 712.93,572.00 C739.03,572.00 743.88,571.77 745.78,570.44 ZM 793.17 570.35 C794.83,568.84 795.00,566.75 795.00,547.18 L 795.00 525.66 L 806.14 506.08 C812.27,495.31 821.05,479.91 825.66,471.86 C830.87,462.73 833.79,456.62 833.40,455.61 C832.87,454.23 830.63,454.00 817.48,454.00 L 802.18 454.00 L 791.96 474.04 C786.33,485.06 781.23,493.92 780.62,493.74 C780.00,493.55 774.85,484.53 769.16,473.70 L 758.82 454.00 L 743.52 454.00 C727.35,454.00 726.08,454.38 727.72,458.75 C728.41,460.57 738.76,478.68 747.01,492.50 C749.64,496.90 754.99,505.98 758.90,512.69 L 766.00 524.87 L 766.00 546.88 C766.00,573.59 765.06,572.00 780.89,572.00 C789.21,572.00 791.72,571.66 793.17,570.35 ZM 503.00 524.46 C503.00,522.52 510.67,499.02 511.95,497.03 C512.47,496.22 513.08,495.77 513.31,496.03 C513.84,496.63 523.00,524.25 523.00,525.25 C523.00,525.66 518.50,526.00 513.00,526.00 C504.66,526.00 503.00,525.74 503.00,524.46 ZM 605.67 506.33 C605.30,505.97 605.00,500.18 605.00,493.48 L 605.00 481.29 L 611.89 480.65 C615.67,480.30 620.96,480.29 623.64,480.63 C637.53,482.42 640.00,499.34 627.32,505.88 C624.99,507.07 606.79,507.46 605.67,506.33 Z" fill="rgb(232,231,227)"/>
</g>
</svg>